<?xml version="1.0" encoding="utf-8"?>
<!-- Generator: Adobe Illustrator 26.0.3, SVG Export Plug-In . SVG Version: 6.00 Build 0)  -->
<svg version="1.1" id="Livello_1" xmlns="http://www.w3.org/2000/svg" xmlns:xlink="http://www.w3.org/1999/xlink" x="0px" y="0px"
	 viewBox="0 0 1920 1920" style="enable-background:new 0 0 1920 1920;" xml:space="preserve">
<style type="text/css">
	.st0{fill:#5E785A;}
	.st1{fill:#ADCDA7;}
</style>
<g>
	<g>
		<g>
			<g>
				<path class="st0" d="M671.3,911.2c-3.6-6.3-7-12.6-10.2-19h-5.8l-5,19l-19.6,74.4c56.9,43.1,111.2,73.8,191.3,79.9v-24.7
					C755.4,1020.4,704.7,969.3,671.3,911.2z"/>
			</g>
		</g>
		<g>
			<g>
				<path class="st0" d="M1056.6,900.4c0,31.5-9.2,60.1-25.6,84.3c-11.8,17.5-27.4,32.7-46,45.1c-18,12-38.7,21.4-61.6,27.7v-11.5
					c14.7-3.5,28.5-9.1,40.7-16.1c20.1-11.6,36.1-27.3,46-45.1c5.5-9.8,9.1-20.3,10.5-31c4.2-34.7-6.3-60.3-25.9-80.7
					c-2.2-2.2-4.4-4.4-6.8-6.5c-84.3-75.4-298.1-77-298.1-237.1c0-18,3.9-37.3,12.3-55.8c13.7-30.1,39.1-58,78.5-75.4
					c22.6-9.9,49.7-16.3,81.9-17.7c4-0.2,8.2-0.2,12.3-0.2c2.9,0,5.7,0.1,8.6,0.2c60.7,3.3,125.5,40.8,171.6,76.7l-18.6,64.7
					l-5.9,20.5h-5.7c-3-7.1-6.1-14-9.3-20.5c-42.8-89.6-95.6-127-152.5-130.7c-3.1-0.2-6.3-0.3-9.4-0.3c-3.9,0-7.8,0.1-11.5,0.3
					c-14.8,0.8-28.3,3.2-40.5,6.9c-43.5,13.2-70.5,42.7-78.5,75.4c-1,4.1-1.7,8.2-2.1,12.4c-14.6,154.1,295.6,115.4,332.2,280.8
					c0.1,0.3,0.1,0.5,0.2,0.8c0.1,0.4,0.2,0.9,0.3,1.4c0.3,1.5,0.6,3.1,0.9,4.6c0.1,0.5,0.2,1,0.3,1.5c0.1,0.9,0.3,1.8,0.4,2.6
					C1056.1,885,1056.6,892.5,1056.6,900.4z"/>
			</g>
		</g>
		<g>
			<g>
				<path class="st1" d="M1088.6,1134.2c85.2-10.6,165.4-43.4,165.4-131c0-93.6-89.3-125.3-179.4-134c0.2,0.7,0.3,1.4,0.4,2.2
					c0.3,1.3,0.5,2.7,0.7,4.1c0.2,0.9,0.3,1.9,0.4,2.8c84.5,15.7,113.2,65.1,113.2,124.9c0,72.1-42.6,128.6-176.9,128.6H905.1V873
					h68.6c-2.2-2.2-4.4-4.4-6.8-6.5H822.4c0,0,0,4.9,0,6.5c12.3,7.4,18,19.7,18,48.3v464.3c0,28.7-5.8,41-18,48.3c0,1.6,0,5.7,0,5.7
					h225.2c105.7,0,241.6-38.5,241.6-154C1289.2,1185.8,1185.2,1143.2,1088.6,1134.2z M1047.6,1434H905.1v-295.7h142.5
					c134.3,0,177.7,75.4,177.7,147.4C1225.3,1358.6,1181.9,1434,1047.6,1434z"/>
			</g>
		</g>
	</g>
	<g>
		<g>
			<path class="st0" d="M216.1,1373.1c-70.3-125.9-107.4-269.2-107.4-414.3c0-145.1,37.1-288.4,107.4-414.3l8.5,4.7
				c-69.5,124.5-106.2,266.1-106.2,409.5c0,143.4,36.7,285.1,106.2,409.5L216.1,1373.1z"/>
		</g>
		<g>
			<g>
				<path class="st0" d="M347.1,400.2l-29.5,27.6l38.2,40.8l-8.1,7.6L245.3,366.7l39.6-37.1c24-22.5,52.1-25.6,71.8-4.5l0.3,0.3
					C378.6,348.4,369.9,378.9,347.1,400.2z M349.1,333.2c-16.2-17.4-38.1-13.9-57.8,4.5l-30.9,28.9l50.1,53.6l30-28
					c20.3-19,24.1-42.5,8.9-58.7L349.1,333.2z"/>
			</g>
			<g>
				<path class="st0" d="M482.4,360.1l-76.7-128.7l91.4-54.5l5.3,8.8l-81.8,48.8l30.1,50.5l73.6-43.9l5.3,8.8l-73.6,43.9l30.8,51.6
					l82.8-49.4l5.3,8.8L482.4,360.1z"/>
			</g>
			<g>
				<path class="st0" d="M740,236.7l-65.9-42.2l-46,16.6l21.1,58.4l-10.4,3.8l-50.9-141l59.1-21.4c30.3-11,56.2-1.6,64.7,21.9
					l0.1,0.4c8.5,23.6-4.1,43.4-26.6,55.2l68.1,43.4L740,236.7z M701.3,137.1c-6.8-18.9-26-25.4-51.5-16.2l-48,17.4l22.9,63.4
					l47.4-17.1c23.5-8.5,36.7-26.7,29.4-47L701.3,137.1z"/>
			</g>
			<g>
				<path class="st0" d="M870.2,212.5c-23.7,3.4-43-1.9-63-15.2l6-9.3c18.4,12.7,34.5,17.6,56.2,14.4c22.2-3.2,35.7-17.9,33.2-34.8
					l-0.1-0.4c-2.2-15.7-11.8-23.6-46.4-25.6c-36.6-2.1-52.7-12.2-55.9-34.6l-0.1-0.4c-3.2-22,14.5-41.8,42-45.8
					c21.6-3.1,36.6,0.8,53.3,10.7l-5.7,9.7c-15.7-10.1-30.3-12.7-46.6-10.4c-21.8,3.1-34.4,17.7-32.2,33.1l0.1,0.4
					c2.2,15.7,11.6,24.1,47.8,26.3c35.3,2.1,51.4,12.3,54.5,33.9l0.1,0.4C917,188.9,898.8,208.4,870.2,212.5z"/>
			</g>
			<g>
				<path class="st0" d="M1058.7,207.2c-45.2-3.5-72-41.8-68.9-82.5l0-0.4c3.1-40.8,35.9-75,81.1-71.5s72,41.8,68.9,82.5
					c0.2,0.2,0.2,0.2,0,0.4C1136.6,176.4,1103.8,210.6,1058.7,207.2z M1128.2,134.8c2.8-36.9-21.7-69.3-58.6-72.1
					c-36.9-2.8-65.6,25-68.4,62l0,0.4c-2.8,36.9,21.7,69.3,58.6,72.1c36.9,2.8,65.5-25,68.4-62L1128.2,134.8z"/>
			</g>
			<g>
				<path class="st0" d="M1315.5,261.3l-59.7-159l-40.6,126.8l-10.2-3.3l45.7-142.7l10,3.2l58.5,155.7l39.8-124.2l10.2,3.3
					l-45.7,142.7L1315.5,261.3z"/>
			</g>
			<g>
				<path class="st0" d="M1503.1,360.4l5.2-45.8l-75.8-45.2l-37.8,26.3l-9.9-5.9l137.1-93.9l9.2,5.5l-17.5,165.3L1503.1,360.4z
					 M1520,209l-78.3,54.2l67.7,40.4L1520,209z"/>
			</g>
			<g>
				<path class="st0" d="M1565.2,409.3l101.8-109.9l8.2,7.6l-94.8,102.4l64.5,59.7l-7,7.5L1565.2,409.3z"/>
			</g>
		</g>
		<g>
			<g>
				<path class="st0" d="M451.6,1557.3l-89.9,111.5l-8.9-7.2l89.9-111.5l-41.7-33.6l6.6-8.2l92.2,74.4l-6.6,8.2L451.6,1557.3z"/>
			</g>
			<g>
				<path class="st0" d="M589,1803.1l-17-78.5l-45.4-21.5l-27.2,57.6l-10.3-4.9l65.6-139l58.3,27.5c29.9,14.1,41.9,39.7,30.9,62.9
					l-0.2,0.4c-11,23.2-34.5,28.4-59.4,20.5l17.8,81L589,1803.1z M633.4,1702.8c8.8-18.7-0.3-37.3-25.5-49.2l-47.4-22.4l-29.5,62.6
					l46.8,22.1c23.2,11,46,7.4,55.5-12.7L633.4,1702.8z"/>
			</g>
			<g>
				<path class="st0" d="M825.1,1863.7l-11.2-45.9l-89-16.7l-27.1,38.7l-11.6-2.2l98.8-139l10.8,2l41.7,165.4L825.1,1863.7z
					 M787.8,1711.8l-56.3,80l79.5,14.9L787.8,1711.8z"/>
			</g>
			<g>
				<path class="st0" d="M933.6,1867.5l-1.4-153.8l11.4-0.1l1.4,153.8L933.6,1867.5z"/>
			</g>
			<g>
				<path class="st0" d="M1170.9,1837.4l-133.5-112l27.6,133.8l-10.8,2.2l-31.1-150.6l10.5-2.2l130.8,109.6l-27-131l10.7-2.2
					l31.1,150.6L1170.9,1837.4z"/>
			</g>
			<g>
				<path class="st0" d="M1285.6,1797.8l-67.3-138.3l98.2-47.8l4.6,9.5l-87.9,42.8l26.4,54.3l79.1-38.5l4.6,9.5l-79.1,38.5l27,55.5
					l88.9-43.3l4.6,9.5L1285.6,1797.8z"/>
			</g>
			<g>
				<path class="st0" d="M1556.5,1622.2l-78.4-17.7l-38.6,32.1l40.8,49l-8.8,7.3l-98.4-118.2l49.5-41.3
					c25.4-21.2,53.7-21.3,70.1-1.5l0.3,0.3c16.5,19.7,11.2,43.3-6.4,62.5l81,18L1556.5,1622.2z M1484.3,1539.6
					c-13.2-15.9-34-15.4-55.4,2.4l-40.3,33.5l44.3,53.2l39.8-33.1c19.7-16.4,26.1-38.6,11.9-55.6L1484.3,1539.6z"/>
			</g>
		</g>
		<g>
			<path class="st0" d="M1703.9,1378.3l-8.5-4.7c69.4-124.5,106.2-266.1,106.2-409.5s-36.7-285.1-106.2-409.5l8.5-4.7
				c70.3,125.9,107.4,269.2,107.4,414.3S1774.2,1252.3,1703.9,1378.3z"/>
		</g>
	</g>
</g>
</svg>
